<svg t="1675220373198" class="icon" viewBox="0 0 1024 1024" version="1.1" xmlns="http://www.w3.org/2000/svg" p-id="1652" width="64" height="64"><path d="M770.6112 788.5312h-122.7776c-56.3712 0-102.0416-45.6704-102.0416-102.0416V486.2464c0-56.3712 45.6704-102.0416 102.0416-102.0416h122.7776c56.3712 0 102.0416 45.6704 102.0416 102.0416v200.2432c0 56.3712-45.6704 102.0416-102.0416 102.0416z" fill="#FFE6D8" p-id="1653"></path><path d="M770.6112 788.5312h-122.7776c-56.3712 0-102.0416-45.6704-102.0416-102.0416V486.2464c0-56.3712 45.6704-102.0416 102.0416-102.0416h122.7776c56.3712 0 102.0416 45.6704 102.0416 102.0416v200.2432c0 56.3712-45.6704 102.0416-102.0416 102.0416z" fill="#FFE6D8" p-id="1654"></path><path d="M872.6528 475.136c0-10.752-1.5872-20.992-4.352-30.5152-5.5296-1.6384-11.3664-2.56-17.3056-2.56H671.232c-40.6016 0-73.5232 40.7552-73.5232 90.9824v222.4128c0 10.6496 1.4848 20.8896 4.1984 30.4128 5.5808 1.6896 11.4176 2.6624 17.4592 2.6624h30.2592v-197.5808c0-50.2272 32.9216-90.9824 73.5232-90.9824h149.5552V475.136z" fill="#FE966C" p-id="1655"></path><path d="M872.6528 499.968h-149.5552c-40.6016 0-73.5232 40.7552-73.5232 90.9824v197.5808H701.44v-139.6736c0-50.2272 32.9216-90.9824 73.5232-90.9824h97.6384V499.968z" fill="#FFB392" p-id="1656"></path><path d="M775.0144 557.8752c-40.6016 0-73.5232 40.7552-73.5232 90.9824v139.6736h51.9168v-81.8176c0-50.2272 32.9216-90.9824 73.5232-90.9824h45.7728v-57.9072h-97.6896z" fill="#FED9C4" p-id="1657"></path><path d="M597.6576 755.456v-222.4128c0-50.2272 32.9216-90.9824 73.5232-90.9824h179.8144c5.9904 0 11.776 0.9728 17.3568 2.6624-10.1376-35.2768-37.2736-60.5696-69.2224-60.5696h-179.8144c-40.6016 0-73.5232 40.7552-73.5232 90.9824v222.4128c0 42.8544 23.9616 78.6944 56.2176 88.32-2.7648-9.472-4.352-19.712-4.352-30.4128z" fill="#FF7B4C" p-id="1658"></path><path d="M804.096 118.3744h-168.8064c-31.5904 0-79.9744 12.6976-114.0224 51.5584-35.3792-38.0416-85.76-51.0976-121.5488-51.5584H230.144c-70.7584 0-128.3584 57.6-128.3584 128.3584v474.6752c0 70.7584 57.6 128.3584 128.3584 128.3584h177.1008c26.0608 33.6384 66.2528 53.76 109.8752 53.76s83.7632-20.0704 109.8752-53.76h177.1008c70.7584 0 128.3584-57.6 128.3584-128.3584V246.6816c0-70.7584-57.6-128.3072-128.3584-128.3072z m46.4384 602.9824c0 25.6-20.8384 46.4384-46.4384 46.4384H604.672c-15.4112 0-29.4912 8.6528-36.5056 22.3232-9.8816 19.3536-29.44 31.3856-51.0464 31.3856-21.6064 0-41.1648-12.032-51.0464-31.3856a40.96 40.96 0 0 0-36.5056-22.3232H230.144c-25.6 0-46.4384-20.8384-46.4384-46.4384V246.6816c0-25.6 20.8384-46.4384 46.4384-46.4384h168.7552c25.0368 0.4096 82.6368 10.0352 82.6368 90.112v378.112c0 22.6304 18.3296 40.96 40.96 40.96s40.96-18.3296 40.96-40.96V290.4064c0-83.6096 55.04-90.112 71.8848-90.112h168.8064c25.6 0 46.4384 20.8384 46.4384 46.4384v474.624z" fill="#373E51" p-id="1659"></path></svg>